<svg xmlns="http://www.w3.org/2000/svg" width="64" height="63" viewBox="0 0 64 63"><defs><style>.a{fill:none;}.b{fill:#fff;}</style></defs><g transform="translate(-226 -1382)"><rect class="a" width="64" height="63" transform="translate(226 1382)"/><g transform="translate(69.259 1326.318)"><path class="b" d="M201.569,124.761H170.442a1.427,1.427,0,0,1-1.427-1.427V92.206a1.427,1.427,0,0,1,1.427-1.427h19.011a1.427,1.427,0,1,1,0,2.855H171.87v28.273h28.273V103.276a1.427,1.427,0,1,1,2.855,0v20.058A1.427,1.427,0,0,1,201.569,124.761Z" transform="translate(0 -16.802)"/><path class="b" d="M242.259,79.678V68.692h0a1.425,1.425,0,0,0-.027-.277c0-.025-.016-.049-.022-.074a1.434,1.434,0,0,0-.058-.192c-.012-.03-.031-.057-.046-.086a1.469,1.469,0,0,0-.085-.16,1.41,1.41,0,0,0-.4-.4,1.409,1.409,0,0,0-.16-.086c-.029-.014-.057-.033-.086-.045a1.407,1.407,0,0,0-.193-.059c-.025-.006-.048-.017-.073-.022a1.42,1.42,0,0,0-.277-.027h-12.1a1.427,1.427,0,0,0,0,2.855h8.65L217.9,89.608a1.427,1.427,0,0,0,2.018,2.018L239.4,72.137v7.541a1.427,1.427,0,1,0,2.854,0Z" transform="translate(-34.629)"/></g></g></svg>